<?xml version="1.0" standalone="no"?>
<svg xmlns="http://www.w3.org/2000/svg" viewBox="0 0 105 73" width="105" height="73"><g fill="#000000" color="#000000" transform="translate(30.301 0) scale(0.44) "><svg width="100.0" height="100.0" x="0.0" y="0.0" viewBox="0 0 100 100"><polygon points="98.716,70.762 89.38,55.229 80.045,55.229 89.38,70.762 80.045,86.295 89.38,86.295 "></polygon><polygon points="75.731,70.762 66.395,86.295 75.731,86.295 85.067,70.762 75.731,55.229 66.395,55.229 "></polygon><path d="M55.149,66.022l-4.507-7.499c-1.07,3.659-4.445,6.335-8.451,6.335c-4.865,0-8.809-3.944-8.809-8.809  c0-4.865,3.944-8.809,8.809-8.809c3.295,0,6.161,1.812,7.671,4.491h2.884h5.202c-0.212-0.761-0.457-1.506-0.765-2.214l4.494-5.48  l-4.757-5.511l-6.086,3.651c-2.042-1.273-4.358-2.115-6.81-2.391l-2.494-6.619L34.38,34.53l0.118,7.072  c-2.178,1.159-4.021,2.794-5.451,4.73l-7.003-1.154l-2.394,6.875l6.196,3.44c-0.039,1.19,0.039,2.401,0.271,3.621  s0.606,2.374,1.081,3.466l-4.494,5.48l4.757,5.511l6.086-3.651c2.042,1.273,4.358,2.115,6.81,2.391l2.494,6.619l7.151-1.364  l-0.118-7.072C51.966,69.386,53.747,67.846,55.149,66.022z"></path><path d="M49.746,84.492l1.308-2.176c-2.783,0.941-5.762,1.455-8.863,1.455c-15.311,0-27.723-12.412-27.723-27.723  c0-15.311,12.412-27.723,27.723-27.723c13.841,0,25.3,10.146,27.376,23.404h4.291h0.846c-2.115-16.077-15.858-28.49-32.513-28.49  c-18.12,0-32.809,14.689-32.809,32.809c0,18.12,14.689,32.809,32.809,32.809c1.767,0,3.497-0.154,5.188-0.426L49.746,84.492z"></path><polygon points="71.417,70.762 62.082,55.229 52.746,55.229 62.082,70.762 52.746,86.295 62.082,86.295 "></polygon></svg></g><path fill="#000000" fill-rule="nonzero" d="M0 20.19L0 0.18L3.04 0.18Q3.61 0.18 4.29 0.23Q4.98 0.28 5.67 0.47Q6.35 0.67 6.99 1.07Q7.63 1.46 8.12 2.15Q8.61 2.84 8.91 3.87Q9.21 4.90 9.21 6.38L9.21 6.38L9.21 7.08Q9.21 8.68 8.94 9.83Q8.66 10.97 8.20 11.75Q7.75 12.53 7.14 13.00Q6.54 13.46 5.89 13.71Q5.24 13.95 4.58 14.02Q3.91 14.10 3.33 14.10L3.33 14.10L3.04 14.10L3.04 20.19L0 20.19ZM3.04 11.87L3.19 11.87Q4.01 11.87 4.57 11.63Q5.13 11.39 5.47 10.88Q5.80 10.37 5.95 9.57Q6.09 8.77 6.09 7.64L6.09 7.64L6.09 5.84Q6.09 4.95 5.96 4.29Q5.84 3.64 5.50 3.22Q5.17 2.80 4.61 2.60Q4.04 2.39 3.19 2.39L3.19 2.39L3.04 2.39L3.04 11.87ZM10.73 16.14L10.73 16.14Q10.73 15.49 10.81 14.95Q10.89 14.40 11.04 13.77L11.04 13.77L13.39 13.77L13.39 14.74Q13.39 15.55 13.49 16.17Q13.59 16.79 13.82 17.22Q14.05 17.65 14.43 17.87Q14.81 18.08 15.36 18.08L15.36 18.08Q16.23 18.08 16.69 17.61Q17.14 17.13 17.14 16.22L17.14 16.22Q17.14 15.75 17.08 15.36Q17.02 14.96 16.86 14.58Q16.70 14.19 16.43 13.76Q16.16 13.34 15.74 12.81L15.74 12.81L12.57 9.05Q11.73 7.97 11.27 6.87Q10.82 5.78 10.82 4.54L10.82 4.54Q10.82 3.54 11.13 2.71Q11.44 1.88 12.02 1.27Q12.61 0.67 13.47 0.33Q14.33 0 15.42 0L15.42 0Q16.75 0 17.63 0.38Q18.52 0.75 19.04 1.36Q19.57 1.97 19.79 2.72Q20.00 3.48 20.00 4.24L20.00 4.24Q20.00 4.89 19.90 5.43Q19.80 5.98 19.68 6.63L19.68 6.63L17.33 6.63L17.33 5.68Q17.33 4.09 16.88 3.24Q16.42 2.39 15.39 2.39L15.39 2.39Q14.53 2.39 14.11 2.87Q13.69 3.34 13.69 4.14L13.69 4.14Q13.69 4.56 13.75 4.90Q13.82 5.24 13.94 5.53Q14.06 5.81 14.24 6.08Q14.41 6.35 14.64 6.64L14.64 6.64L18.16 10.91Q19.13 12.16 19.64 13.32Q20.16 14.47 20.16 15.76L20.16 15.76Q20.16 16.83 19.82 17.68Q19.49 18.54 18.87 19.14Q18.25 19.73 17.37 20.06Q16.49 20.38 15.39 20.38L15.39 20.38Q14.03 20.38 13.13 20.02Q12.23 19.65 11.70 19.05Q11.17 18.46 10.95 17.70Q10.73 16.93 10.73 16.14ZM22.20 20.19L22.20 18.41L26.61 9.90Q27.22 8.74 27.60 7.88Q27.98 7.01 28.20 6.36Q28.42 5.71 28.50 5.23Q28.58 4.75 28.58 4.36L28.58 4.36Q28.58 3.75 28.47 3.33Q28.36 2.92 28.14 2.67Q27.93 2.41 27.60 2.31Q27.28 2.20 26.86 2.20L26.86 2.20Q25.83 2.20 25.37 3.05Q24.90 3.90 24.90 5.50L24.90 5.50L24.90 6.63L22.56 6.63Q22.43 5.98 22.34 5.43Q22.24 4.89 22.24 4.24L22.24 4.24Q22.24 3.48 22.51 2.72Q22.77 1.97 23.33 1.36Q23.89 0.75 24.77 0.38Q25.64 0 26.86 0L26.86 0Q28.17 0 29.10 0.30Q30.04 0.61 30.63 1.20Q31.23 1.78 31.51 2.63Q31.78 3.47 31.78 4.54L31.78 4.54Q31.78 5.14 31.67 5.74Q31.56 6.33 31.30 7.00Q31.04 7.68 30.63 8.47Q30.22 9.27 29.63 10.30L29.63 10.30L25.68 17.80L31.52 17.80L31.52 20.19L22.20 20.19ZM34.34 20.19L34.34 0.18L41.75 0.18L41.75 2.57L37.37 2.57L37.37 8.55L40.76 8.55L40.76 10.95L37.37 10.95L37.37 17.80L41.87 17.80L41.87 20.19L34.34 20.19ZM42.74 20.19L46.39 10.11L42.74 0.18L45.98 0.18L47.85 6.57L47.96 6.57L49.83 0.18L52.97 0.18L49.30 10.13L52.97 20.19L49.84 20.19L47.94 13.76L47.74 13.76L45.76 20.19L42.74 20.19ZM55.07 20.19L55.07 0.18L62.48 0.18L62.48 2.57L58.10 2.57L58.10 8.55L61.49 8.55L61.49 10.95L58.10 10.95L58.10 17.80L62.60 17.80L62.60 20.19L55.07 20.19ZM64.56 12.16L64.56 9.79L73.29 9.79L73.29 12.16L64.56 12.16ZM80.52 20.38L80.52 20.38Q80.17 20.38 79.70 20.30Q79.23 20.23 78.73 19.98Q78.23 19.73 77.75 19.28Q77.27 18.83 76.89 18.09Q76.51 17.34 76.28 16.26Q76.04 15.18 76.04 13.68L76.04 13.68L76.04 6.59Q76.04 5.07 76.29 4.00Q76.54 2.93 76.95 2.20Q77.36 1.46 77.89 1.03Q78.42 0.60 79.00 0.37Q79.57 0.14 80.13 0.07Q80.70 0 81.18 0L81.18 0Q82.39 0 83.23 0.33Q84.07 0.67 84.59 1.25Q85.11 1.83 85.34 2.60Q85.57 3.38 85.57 4.24L85.57 4.24Q85.57 4.89 85.49 5.43Q85.42 5.98 85.29 6.63L85.29 6.63L82.86 6.63L82.86 5.68Q82.86 2.39 81.09 2.39L81.09 2.39Q80.61 2.39 80.26 2.55Q79.91 2.72 79.68 3.11Q79.44 3.50 79.33 4.15Q79.22 4.79 79.22 5.75L79.22 5.75L79.22 14.82Q79.22 15.76 79.33 16.38Q79.44 17.00 79.67 17.38Q79.90 17.75 80.24 17.91Q80.59 18.07 81.07 18.07L81.07 18.07Q81.57 18.07 81.94 17.81Q82.30 17.54 82.54 17.09Q82.77 16.63 82.88 16.01Q82.99 15.39 82.99 14.66L82.99 14.66L82.99 12.05L81.43 12.05L81.43 10.05L85.95 10.05L85.95 20.19L83.93 20.19L83.60 18.29Q83.03 19.41 82.28 19.89Q81.54 20.38 80.52 20.38ZM88.68 14.04L88.68 0.18L91.73 0.18L91.73 14.85Q91.73 15.79 91.83 16.41Q91.92 17.03 92.13 17.40Q92.33 17.77 92.65 17.92Q92.98 18.08 93.42 18.08L93.42 18.08Q93.87 18.08 94.20 17.92Q94.54 17.77 94.75 17.40Q94.97 17.03 95.08 16.41Q95.19 15.79 95.19 14.85L95.19 14.85L95.19 0.18L98.21 0.18L98.21 14.04Q98.21 15.50 97.98 16.55Q97.75 17.59 97.36 18.29Q96.97 19.00 96.47 19.41Q95.98 19.82 95.44 20.03Q94.91 20.25 94.38 20.31Q93.86 20.37 93.42 20.37L93.42 20.37Q92.99 20.37 92.47 20.31Q91.95 20.25 91.42 20.03Q90.89 19.82 90.40 19.41Q89.91 19.00 89.52 18.29Q89.13 17.59 88.90 16.55Q88.68 15.52 88.68 14.04L88.68 14.04ZM101.57 20.19L101.57 0.18L104.60 0.18L104.60 20.19L101.57 20.19Z" transform="translate(0, 52)"></path></svg>